<svg width="31" height="24" viewBox="0 0 31 24" fill="none" xmlns="http://www.w3.org/2000/svg">
<path fill-rule="evenodd" clip-rule="evenodd" d="M28.58 2.97246C29.5413 4.0752 30.1694 5.39603 30.3994 6.79895C30.5763 7.86188 30.5194 8.947 30.2321 9.98888C29.9449 11.0308 29.4332 12.0077 28.7282 12.8607C28.3679 13.288 28.0075 13.7155 27.6625 14.1428C27.1751 14.7234 26.9057 15.4366 26.8959 16.1729C26.8954 17.7762 26.2922 19.3291 25.1907 20.5633C24.089 21.7976 22.5582 22.6356 20.8623 22.9327C20.5946 23.012 20.3154 23.0529 20.0343 23.0537H10.5355C10.2755 23.0496 10.0173 23.0113 9.76886 22.9397C8.05281 22.6631 6.49679 21.8327 5.37494 20.5949C4.253 19.3571 3.63712 17.7912 3.63571 16.1729C3.62577 15.4366 3.35653 14.7234 2.86904 14.1428C2.50875 13.7083 2.15608 13.288 1.87238 12.9604C0.543237 11.4103 -0.117924 9.45632 0.0172998 7.47846C0.152624 5.5005 1.07479 3.64007 2.60452 2.25876C4.13414 0.877462 6.16209 0.0741362 8.29385 0.00488057C10.4257 -0.064375 12.509 0.605468 14.1388 1.88411C14.4492 2.12896 14.8432 2.26343 15.2505 2.26343C15.6577 2.26343 16.0517 2.12896 16.3621 1.88411C17.5315 0.971079 18.9415 0.363892 20.4471 0.124888C21.9527 -0.114116 23.4997 0.0236905 24.9291 0.524137C26.3584 1.0246 27.6186 1.86963 28.58 2.97246ZM15.4637 16.7C18.6664 16.7 21.2626 14.237 21.2626 11.1988C21.2626 8.16044 18.6664 5.69755 15.4637 5.69755C12.2611 5.69755 9.66486 8.16044 9.66486 11.1988C9.66486 14.237 12.2611 16.7 15.4637 16.7Z" fill="#014162"/>
</svg>
