<svg width="56" height="56" viewBox="0 0 56 56" fill="none" xmlns="http://www.w3.org/2000/svg">
<path d="M8.75 0H46.6667C48.9873 0 51.2129 0.921873 52.8539 2.56282C54.4948 4.20376 55.4167 6.42936 55.4167 8.75V46.6667C55.4167 48.9873 54.4948 51.2129 52.8539 52.8539C51.2129 54.4948 48.9873 55.4167 46.6667 55.4167H8.75C6.42936 55.4167 4.20376 54.4948 2.56282 52.8539C0.921873 51.2129 0 48.9873 0 46.6667V8.75C0 6.42936 0.921873 4.20376 2.56282 2.56282C4.20376 0.921873 6.42936 0 8.75 0ZM8.75 2.91667C7.2029 2.91667 5.71917 3.53125 4.62521 4.62521C3.53125 5.71917 2.91667 7.2029 2.91667 8.75V42.5542L15.4292 30.0125L22.7208 37.3042L37.3042 22.7208L52.5 37.9167V8.75C52.5 7.2029 51.8854 5.71917 50.7915 4.62521C49.6975 3.53125 48.2138 2.91667 46.6667 2.91667H8.75ZM22.7208 41.4458L15.4292 34.1542L2.91667 46.6667C2.91667 48.2138 3.53125 49.6975 4.62521 50.7915C5.71917 51.8854 7.2029 52.5 8.75 52.5H46.6667C48.2138 52.5 49.6975 51.8854 50.7915 50.7915C51.8854 49.6975 52.5 48.2138 52.5 46.6667V42.0292L37.3042 26.8625L22.7208 41.4458ZM16.0417 8.75C17.9755 8.75 19.8302 9.51823 21.1977 10.8857C22.5651 12.2531 23.3333 14.1078 23.3333 16.0417C23.3333 17.9755 22.5651 19.8302 21.1977 21.1977C19.8302 22.5651 17.9755 23.3333 16.0417 23.3333C14.1078 23.3333 12.2531 22.5651 10.8857 21.1977C9.51823 19.8302 8.75 17.9755 8.75 16.0417C8.75 14.1078 9.51823 12.2531 10.8857 10.8857C12.2531 9.51823 14.1078 8.75 16.0417 8.75ZM16.0417 11.6667C14.8813 11.6667 13.7685 12.1276 12.9481 12.9481C12.1276 13.7685 11.6667 14.8813 11.6667 16.0417C11.6667 17.202 12.1276 18.3148 12.9481 19.1353C13.7685 19.9557 14.8813 20.4167 16.0417 20.4167C17.202 20.4167 18.3148 19.9557 19.1353 19.1353C19.9557 18.3148 20.4167 17.202 20.4167 16.0417C20.4167 14.8813 19.9557 13.7685 19.1353 12.9481C18.3148 12.1276 17.202 11.6667 16.0417 11.6667Z" fill="#DAD8D8"/>
</svg>
