<svg width="24" height="24" viewBox="0 0 24 24" fill="none" xmlns="http://www.w3.org/2000/svg">
<path d="M4 4.8H6V19.2H4V4.8ZM7 4.8H8V19.2H7V4.8ZM9 4.8H12V19.2H9V4.8ZM13 4.8H14V19.2H13V4.8ZM16 4.8H18V19.2H16V4.8ZM19 4.8H20V19.2H19V4.8ZM2 2.4V7.2H0V2.4C0 1.76348 0.210714 1.15303 0.585786 0.702944C0.960859 0.252856 1.46957 0 2 0H6V2.4H2ZM22 0C22.5304 0 23.0391 0.252856 23.4142 0.702944C23.7893 1.15303 24 1.76348 24 2.4V7.2H22V2.4H18V0H22ZM2 16.8V21.6H6V24H2C1.46957 24 0.960859 23.7471 0.585786 23.2971C0.210714 22.847 0 22.2365 0 21.6V16.8H2ZM22 21.6V16.8H24V21.6C24 22.2365 23.7893 22.847 23.4142 23.2971C23.0391 23.7471 22.5304 24 22 24H18V21.6H22Z" fill="#014162"/>
</svg>
