<svg width="20" height="20" viewBox="0 0 20 20" fill="none" xmlns="http://www.w3.org/2000/svg">
<path d="M17 16C17.55 16 18 16.45 18 17C18 17.55 17.55 18 17 18H10C9.45 18 9 17.55 9 17C9 16.45 9.45 16 10 16H17ZM17 14H10C8.346 14 7 15.346 7 17C7 18.654 8.346 20 10 20H17C18.654 20 20 18.654 20 17C20 15.346 18.654 14 17 14ZM17 9C17.55 9 18 9.45 18 10C18 10.55 17.55 11 17 11H10C9.45 11 9 10.55 9 10C9 9.45 9.45 9 10 9H17ZM17 7H10C8.346 7 7 8.346 7 10C7 11.654 8.346 13 10 13H17C18.654 13 20 11.654 20 10C20 8.346 18.654 7 17 7ZM17 2C17.55 2 18 2.45 18 3C18 3.55 17.55 4 17 4H10C9.45 4 9 3.55 9 3C9 2.45 9.45 2 10 2H17ZM17 0H10C8.346 0 7 1.346 7 3C7 4.654 8.346 6 10 6H17C18.654 6 20 4.654 20 3C20 1.346 18.654 0 17 0ZM4 14H2C1.46957 14 0.960859 14.2107 0.585786 14.5858C0.210714 14.9609 0 15.4696 0 16V18C0 18.5304 0.210714 19.0391 0.585786 19.4142C0.960859 19.7893 1.46957 20 2 20H4C4.53043 20 5.03914 19.7893 5.41421 19.4142C5.78929 19.0391 6 18.5304 6 18V16C6 15.4696 5.78929 14.9609 5.41421 14.5858C5.03914 14.2107 4.53043 14 4 14ZM4 18H2V16H4V18ZM4 7H2C1.46957 7 0.960859 7.21071 0.585786 7.58579C0.210714 7.96086 0 8.46957 0 9V11C0 11.5304 0.210714 12.0391 0.585786 12.4142C0.960859 12.7893 1.46957 13 2 13H4C4.53043 13 5.03914 12.7893 5.41421 12.4142C5.78929 12.0391 6 11.5304 6 11V9C6 8.46957 5.78929 7.96086 5.41421 7.58579C5.03914 7.21071 4.53043 7 4 7ZM4 11H2V9H4V11ZM4 0H2C1.46957 0 0.960859 0.210714 0.585786 0.585786C0.210714 0.960859 0 1.46957 0 2V4C0 4.53043 0.210714 5.03914 0.585786 5.41421C0.960859 5.78929 1.46957 6 2 6H4C4.53043 6 5.03914 5.78929 5.41421 5.41421C5.78929 5.03914 6 4.53043 6 4V2C6 1.46957 5.78929 0.960859 5.41421 0.585786C5.03914 0.210714 4.53043 0 4 0ZM4 4H2V2H4V4Z" fill="#888888"/>
</svg>
